<svg xmlns="http://www.w3.org/2000/svg" viewBox="0 0 48 48">
  <path fill="#1877F2" d="M44,24c0,-11.046 -8.954,-20 -20,-20c-11.046,0 -20,8.954 -20,20c0,9.981 7.314,18.257 16.875,19.757l0,-13.757l-5.075,0l0,-6l5.075,0l0,-4.574c0,-5.013 2.985,-7.776 7.55,-7.776c2.183,0 4.474,0.391 4.474,0.391l0,4.922l-2.522,0c-2.482,0 -3.252,1.54 -3.252,3.119l0,3.918l5.532,0l-0.884,6l-4.648,0l0,13.757c9.561,-1.5 16.875,-9.776 16.875,-19.757Z"/>
  <path fill="#FFFFFF" d="M33.095,30l0.884,-6l-5.532,0l0,-3.918c0,-1.579 0.77,-3.119 3.252,-3.119l2.522,0l0,-4.922c0,0 -2.291,-0.391 -4.474,-0.391c-4.565,0 -7.55,2.763 -7.55,7.776l0,4.574l-5.075,0l0,6l5.075,0l0,13.757c1.015,0.16 2.055,0.243 3.115,0.243c1.06,0 2.1,-0.083 3.115,-0.243l0,-13.757l4.648,0Z"/>
</svg> 